<svg version="1.1" id="Business-ManWoman" xmlns="http://www.w3.org/2000/svg" xmlns:xlink="http://www.w3.org/1999/xlink" x="0px" y="0px" width="55px" height="55px" viewBox="0 0 500 500" enable-background="new 0 0 500 500" xml:space="preserve">
  <path fill="#E46784" d="M489.108,436.261c2.464,0,4.188-0.616,5.174-1.848s1.725-2.587,2.218-4.065l-0.739-17.739
    c0.493-11.826-2.956-22.051-10.348-30.674s-16.015-15.645-25.87-21.065c-10.84-5.42-22.42-9.361-34.738-11.826
    c-12.319-2.464-24.146-3.695-35.479-3.695l-33.261-43.609c-1.479-1.478-2.957-2.34-4.435-2.587c-1.479-0.246-3.203,0.37-5.174,1.849
    c-0.985,0.985-1.725,2.34-2.218,4.064c-0.493,1.726,0.246,3.326,2.218,4.805l34.738,45.087c0.985,0.986,1.848,1.726,2.587,2.218
    s1.849,0.739,3.326,0.739c8.87,0,18.972,0.985,30.305,2.956c11.333,1.972,21.681,5.174,31.044,9.608
    c10.348,3.942,18.724,9.486,25.13,16.631c6.406,7.146,9.854,15.646,10.348,25.5l-0.739,17.739c0.493,1.479,1.232,2.834,2.218,4.065
    s2.464,1.848,4.435,1.848H489.108z M177.196,324.651c11.826,0,22.42-2.833,31.782-8.5c9.362-5.666,17.739-12.935,25.131-21.804
    c6.406-9.362,11.826-19.71,16.261-31.044s6.652-22.912,6.652-34.738c3.45-0.492,6.159-2.341,8.131-5.544
    c1.971-3.203,3.202-8.253,3.695-15.152l-0.739-31.782c0.493-3.449,0.124-7.514-1.108-12.195s-4.805-7.762-10.718-9.239l-0.738-25.87
    c0.492-10.348-0.616-19.587-3.326-27.717c-2.711-8.131-6.529-14.906-11.457-20.326c-5.42-5.913-11.703-10.225-18.848-12.936
    c-7.145-2.71-15.892-4.064-26.239-4.064c-11.826,0-23.159,1.602-34,4.804c-10.84,3.203-17.492,5.544-19.957,7.022
    c-7.391,0-14.043,1.354-19.957,4.064c-5.913,2.711-11.333,6.529-16.261,11.457c-3.449,4.928-6.652,10.594-9.609,17
    s-4.188,13.305-3.695,20.695l-0.739,27.348c-1.971,0.492-4.558,1.355-7.761,2.587c-3.204,1.231-5.791,2.834-7.761,4.805
    c-2.957,1.479-5.174,3.326-6.652,5.544c-1.479,2.217-2.464,4.557-2.957,7.021l0.739,31.782c-0.493,2.957,0.123,5.544,1.848,7.761
    c1.725,2.218,3.326,4.313,4.804,6.283l7.392,4.435c2.464,1.479,5.174,2.464,8.13,2.956c0.492,10.841,3.326,21.928,8.5,33.261
    c5.174,11.334,11.457,21.682,18.848,31.044c8.377,8.869,17.616,16.261,27.717,22.174s21.312,8.869,33.63,8.869H177.196z
      M196.413,76.304c7.391,0,14.166,1.109,20.326,3.326c6.16,2.218,10.964,5.298,14.413,9.239c4.435,4.435,7.515,9.979,9.239,16.631
    c1.725,6.652,2.833,14.413,3.326,23.282l-0.739,31.783c0.493,1.478,1.232,2.833,2.218,4.064c0.985,1.231,2.71,1.849,5.174,1.849
    s4.065,0.492,4.804,1.478c0.739,0.986,0.862,3.696,0.37,8.131l0.738,31.782c-0.492,4.928-1.108,7.761-1.848,8.5
    s-1.848,1.109-3.326,1.109c-1.478,0-2.956,0.616-4.435,1.848c-1.478,1.231-1.971,2.587-1.478,4.065
    c-0.493,10.348-2.341,20.818-5.543,31.412c-3.203,10.595-8.007,20.079-14.413,28.457c-5.421,8.377-12.443,15.274-21.065,20.695
    s-17.37,8.131-26.239,8.131c-10.84,0-20.695-2.71-29.565-8.131s-17-12.565-24.392-21.435c-6.405-8.377-11.826-17.862-16.261-28.457
    c-4.435-10.594-6.405-20.818-5.913-30.673c-0.492-1.479-1.231-2.834-2.217-4.065s-2.464-1.848-4.435-1.848
    c-2.957,0-6.405-1.109-10.348-3.326c-3.942-2.218-5.666-4.313-5.174-6.283l-0.739-31.043c0.986-1.479,3.573-3.204,7.761-5.174
    c4.188-1.971,8.747-3.696,13.674-5.174c0.986-0.493,2.095-1.231,3.326-2.218s1.601-2.218,1.108-3.695l0.739-31.783
    c-0.492-5.913,0.247-11.333,2.217-16.261c1.971-4.928,4.435-9.362,7.392-13.305c3.942-3.449,8.13-6.159,12.565-8.13
    c4.435-1.972,9.609-2.957,15.522-2.957l0.739-0.369l0.739-0.369c0.493,0,6.037-1.849,16.63-5.544
    C171.899,78.152,183.602,76.304,196.413,76.304L196.413,76.304z M338.326,307.651c22.667,0,42.007-2.709,58.021-8.13
    s28.949-11.826,38.805-19.218c10.841-7.391,18.725-14.782,23.652-22.174s8.623-13.058,11.087-17c0-0.985,0.123-1.971,0.369-2.956
    s-0.123-1.971-1.108-2.957c-1.479-2.956-3.942-7.144-7.392-12.564s-6.406-11.334-8.869-17.739c-3.45-5.913-6.406-11.579-8.87-17
    c-2.463-5.421-4.435-9.855-5.913-13.305c-2.956-15.769-7.761-29.812-14.413-42.13c-6.652-12.319-13.92-22.667-21.804-31.044
    c-9.363-8.869-19.218-15.521-29.565-19.956c-10.348-4.436-21.928-6.652-34.739-6.652c-2.956,0-6.282,0.246-9.979,0.739
    c-3.695,0.492-7.021,1.231-9.978,2.217c-3.942,0.493-7.392,1.355-10.349,2.587c-2.956,1.232-6.159,2.587-9.608,4.065
    c-0.985,0.985-1.848,2.341-2.587,4.065s-0.615,3.326,0.369,4.804c0.493,1.479,1.725,2.464,3.696,2.957
    c1.971,0.493,3.449,0.493,4.435,0c2.956-1.479,5.667-2.71,8.131-3.695c2.463-0.985,5.42-1.972,8.869-2.957
    c2.464-0.493,5.298-0.862,8.5-1.108c3.203-0.246,6.036-0.37,8.5-0.37c15.768,0,28.826,3.326,39.174,9.979
    s19.218,14.659,26.608,24.021c5.913,9.855,10.964,19.834,15.152,29.936c4.188,10.101,6.775,18.601,7.761,25.5
    c1.479,3.942,3.45,8.746,5.913,14.413c2.464,5.666,5.42,11.703,8.87,18.108c2.463,5.913,5.42,11.456,8.869,16.63
    c3.45,5.175,5.667,9.239,6.652,12.196c-1.972,3.942-5.667,9.116-11.087,15.521S432.935,267,424.065,272.913
    c-9.855,5.913-21.681,10.964-35.479,15.151c-13.797,4.188-30.797,6.283-51,6.283c-3.941,0-8.254-0.123-12.935-0.37
    c-4.681-0.246-8.746-0.861-12.196-1.848c-4.928-0.492-9.115-1.231-12.564-2.217c-3.45-0.986-7.392-1.971-11.826-2.957
    c-0.985-0.492-2.341-0.369-4.065,0.37c-1.725,0.738-2.587,2.094-2.587,4.064c-0.985,1.479-0.985,2.957,0,4.436
    c0.985,1.478,2.218,2.464,3.695,2.956c4.435,0.986,8.5,2.095,12.196,3.326c3.695,1.231,8.007,2.095,12.935,2.587
    c3.941,0.986,8.376,1.725,13.304,2.218c4.929,0.492,9.609,0.738,14.044,0.738H338.326z M10.891,436.261
    c0.986,0,2.218-0.616,3.696-1.848c1.479-1.232,1.971-2.587,1.479-4.065l0.739-17.739c-0.492-10.841,1.725-19.957,6.652-27.348
    c4.927-7.392,10.84-13.305,17.739-17.739c7.883-4.435,16.261-7.761,25.13-9.979c8.87-2.217,17.986-3.326,27.348-3.326h22.913
    c1.971,0,3.326-0.247,4.065-0.739c0.739-0.492,1.601-1.231,2.587-2.217l19.957-36.957c1.478-1.478,1.848-3.079,1.108-4.804
    c-0.739-1.726-1.601-3.08-2.587-4.065c-1.97-0.986-3.696-1.231-5.174-0.739s-2.957,1.479-4.435,2.956l-18.479,34H92.935
    c-10.348,0-21.065,1.479-32.152,4.436c-11.087,2.956-20.573,7.145-28.457,12.564c-8.87,5.913-15.769,13.305-20.696,22.175
    c-4.927,8.869-7.638,19.463-8.13,31.782l0.739,17.739c-0.492,1.479,0,2.833,1.478,4.065c1.479,1.231,2.957,1.848,4.435,1.848H10.891
    z M350.892,436.261c1.478,0,2.956-0.616,4.435-1.848s1.971-2.587,1.479-4.065l0.738-17.739c-0.492-12.318-3.202-22.913-8.13-31.782
    c-4.928-8.87-11.826-16.262-20.695-22.175c-7.885-5.42-17.246-9.608-28.087-12.564c-10.841-2.957-21.436-4.436-31.783-4.436h-20.695
    l-20.696-36.217c-1.479-1.479-2.957-2.465-4.435-2.957c-1.478-0.492-3.203-0.246-5.174,0.739c-0.986,0.986-1.848,2.218-2.587,3.696
    c-0.739,1.478-0.37,3.203,1.109,5.174l22.174,39.174l3.326,2.217c0.739,0.492,1.848,0.739,3.326,0.739h22.913
    c9.363,0,18.355,1.109,26.979,3.326c8.623,2.218,16.877,5.544,24.761,9.979c6.898,4.435,12.812,10.348,17.739,17.739
    c4.928,7.391,7.146,16.508,6.652,27.348l0.739,17.739c-0.493,1.479,0,2.834,1.479,4.065c1.478,1.231,2.71,1.848,3.695,1.848H350.892
    z M148.37,419.261c1.478,0,2.464-0.247,2.957-0.739s1.231-0.986,2.217-1.479L184.587,386c0.986-0.986,1.479-1.971,1.479-2.957
    s0.247-1.971,0.739-2.956c-0.492-0.492-0.862-1.231-1.108-2.218c-0.247-0.986-1.109-1.725-2.587-2.218L122.5,340.174
    c-1.971-0.986-3.449-1.355-4.435-1.109c-0.986,0.247-2.218,0.862-3.696,1.849c-0.492,0.985-0.986,2.095-1.479,3.325
    c-0.492,1.231-0.247,2.588,0.739,4.065l28.826,67.261l2.217,2.218C145.166,418.274,146.399,418.769,148.37,419.261
    C147.877,419.261,147.877,419.261,148.37,419.261S148.862,419.261,148.37,419.261L148.37,419.261z M132.109,360.869l38.435,21.435
    l-19.957,19.218l-17.739-40.652H132.109z M211.935,419.261h0.37h0.37c1.971-0.986,2.957-1.479,2.957-1.479l2.217-2.218
    l31.783-64.304c1.478-1.479,1.971-2.834,1.478-4.065s-0.985-2.34-1.478-3.326c-1.478-0.986-2.833-1.601-4.065-1.848
    c-1.232-0.247-2.587-0.123-4.065,0.369l-63.565,33.261c-1.478,0.493-2.34,1.109-2.587,1.849c-0.247,0.738-0.862,1.601-1.848,2.587
    c0.492,0.985,0.739,1.97,0.739,2.956s0.739,1.971,2.217,2.957l30.304,31.043c1.479,0.492,2.464,0.986,2.957,1.479
    S210.949,419.261,211.935,419.261L211.935,419.261z M191.239,383.043l38.435-20.695l-19.217,39.913L190.5,383.043H191.239z"></path>
  </svg>