<svg version="1.1" id="Clock-Back" xmlns="http://www.w3.org/2000/svg" xmlns:xlink="http://www.w3.org/1999/xlink" x="0px" y="0px" width="44px" height="44px" viewBox="0 0 500 500" enable-background="new 0 0 500 500" xml:space="preserve">
  <path fill="#E46784" d="M49.4,295c2,0,4-0.834,6-2.5s2.667-3.834,2-6.5c0.667-34,7.334-66,20-96c12.667-30,30.334-56.334,53-79
    c22-22,48.167-39.5,78.5-52.5c30.334-13,62.167-19.5,95.5-19.5c3.333,0,5.667-0.833,7-2.5s2.333-3.833,3-6.5
    c-0.667-2-1.667-3.833-3-5.5s-3.667-2.5-7-2.5c-36,0-70.167,6.833-102.5,20.5C169.567,56.167,141.734,75,118.4,99
    c-24.666,24-43.666,52.166-57,84.5C48.067,215.834,41.067,250,40.4,286c0.667,2.666,1.667,4.834,3,6.5
    C44.734,294.166,46.734,295,49.4,295L49.4,295z M49.4,300c0.667,0,1.834-0.334,3.5-1c1.667-0.666,2.5-1.334,2.5-2l55-69
    c0.667-2,1-4.167,1-6.5c0-2.334-1.333-4.166-4-5.5c-0.666-2-2.333-2.834-5-2.5c-2.666,0.334-4.666,1.5-6,3.5l-46,58l-31-67
    c-1.333-2.666-3-4.334-5-5s-4.333-0.334-7,1c-1.333,0.666-2.666,2.166-4,4.5c-1.333,2.334-1,4.5,1,6.5l36,80l3.5,3.5
    c1,1,2.5,1.5,4.5,1.5c-0.666,0-0.666,0,0,0c0.667,0,0.667,0,0,0H49.4z M304.4,116c-22.666,0-44.5,4.334-65.5,13
    c-21,8.666-39.166,21-54.5,37c-16,15.334-28.333,33.334-37,54c-8.666,20.667-13.333,42.666-14,66c0.667,24,5.334,46.334,14,67
    c8.667,20.666,21,38.666,37,54c15.334,15.334,33.5,27.5,54.5,36.5c21,9,42.834,13.5,65.5,13.5c24,0,46.333-4.5,67-13.5
    s39-21.166,55-36.5c14.667-15.333,26.667-33.333,36-54c9.333-20.666,13.667-43,13-67c0.667-23.334-3.667-45.333-13-66
    c-9.333-20.666-21.333-38.666-36-54c-16-16-34.333-28.334-55-37S328.4,116,304.4,116L304.4,116z M304.4,94h1c26,0,50.833,5,74.5,15
    s43.833,24,60.5,42c18,17.334,31.833,37.666,41.5,61c9.667,23.333,14.833,48,15.5,74c-0.667,26.667-5.833,51.667-15.5,75
    c-9.667,23.334-23.5,43.667-41.5,61c-16.667,17.334-36.833,31-60.5,41s-48.5,15-74.5,15c-27.334,0-52.5-5-75.5-15
    c-23-10-43.5-23.666-61.5-41c-16.666-17.334-30.166-37.666-40.5-61c-10.333-23.334-15.166-48.334-14.5-75
    c-0.666-26,4.167-50.667,14.5-74c10.334-23.334,23.834-43.666,40.5-61c18-18,38.5-32,61.5-42c23-10,48.167-15,75.5-15H304.4z
      M304.4,295c2,0,3.333-0.166,4-0.5c0.667-0.333,1.667-1.166,3-2.5l84-85c2.667-2,3.833-4.166,3.5-6.5s-1.167-4.166-2.5-5.5
    c-2-2-4-3-6-3s-4.333,1-7,3l-84,85c-2,2-2.834,4.167-2.5,6.5c0.334,2.334,0.834,4.167,1.5,5.5c1.334,1.334,2.333,2.167,3,2.5
    c0.667,0.334,2,0.5,4,0.5H304.4z M304.4,295c2,0,3.333-0.166,4-0.5c0.667-0.333,1.667-1.166,3-2.5c1.333-1.333,2.167-3.166,2.5-5.5
    c0.333-2.333-0.833-4.5-3.5-6.5l-63-64c-2-1.334-4-2-6-2s-4.333,0.666-7,2c-0.666,2-1.166,4.166-1.5,6.5
    c-0.333,2.333,0.5,4.167,2.5,5.5l63,64c1.334,1.334,2.333,2.167,3,2.5c0.667,0.334,2,0.5,4,0.5H304.4z">
  </path>
</svg>