<svg version="1.1" id="Data-Cloud" xmlns="http://www.w3.org/2000/svg" xmlns:xlink="http://www.w3.org/1999/xlink" x="0px" y="0px" width="44px" height="44px" viewBox="0 0 500 500" enable-background="new 0 0 500 500" xml:space="preserve">
  <path fill="#E46784" d="M424.915,477.818c8.896,0,17.794-1.747,26.69-5.242s16.204-8.42,21.924-14.775
    c6.99-6.354,12.074-13.821,15.251-22.4c3.178-8.579,5.084-17.635,5.72-27.167l-0.953-23.83c0.636-9.532-0.953-18.588-4.767-27.167
    c-3.813-8.578-8.578-15.728-14.298-21.447c-6.99-6.354-14.615-11.438-22.877-15.251c-8.262-3.813-17.476-5.72-27.644-5.72H76.038
    c-10.167,0-19.383,1.906-27.644,5.72c-8.26,3.813-15.886,8.897-22.877,15.251c-5.719,5.72-10.485,12.869-14.298,21.447
    c-3.813,8.579-5.401,17.635-4.766,27.167L5.5,408.233c0.635,9.532,2.542,18.588,5.719,27.167c3.178,8.579,8.261,16.047,15.251,22.4
    c5.719,6.354,13.027,11.28,21.924,14.775c8.897,3.494,17.793,5.242,26.69,5.242H424.915L424.915,477.818z M75.085,331.023h349.83
    c6.99,0,13.822,1.43,20.494,4.289c6.673,2.86,12.232,6.832,16.682,11.915c5.083,4.449,8.896,9.851,11.438,16.205
    c2.542,6.355,4.13,13.345,4.766,20.971l-0.953,23.83c0.636,7.626-0.636,14.617-3.813,20.972s-6.673,12.074-10.485,17.157
    c-5.72,4.449-11.598,8.103-17.635,10.962c-6.036,2.86-13.186,4.29-21.447,4.29H76.038c-8.261,0-15.41-1.43-21.447-4.29
    c-6.038-2.859-11.916-6.514-17.635-10.962c-3.813-5.084-7.307-10.804-10.485-17.157c-3.178-6.354-4.448-13.346-3.813-20.972
    l-0.953-23.83c0.635-7.626,2.225-14.616,4.766-20.971c2.542-6.354,6.354-11.757,11.438-16.205
    c4.448-5.084,10.009-9.055,16.682-11.915C61.263,332.453,68.094,331.023,75.085,331.023L75.085,331.023z M403.944,414.906
    c3.177,0,6.673-0.794,10.485-2.383c3.813-1.588,6.673-3.653,8.579-6.196c3.177-2.541,5.401-5.56,6.673-9.056
    c1.271-3.494,2.224-7.148,2.859-10.962c-0.636-3.813-1.589-7.466-2.859-10.962c-1.271-3.494-3.496-6.513-6.673-9.056
    c-1.906-2.541-4.766-4.606-8.579-6.195c-3.813-1.588-7.309-2.383-10.485-2.383c-4.448,0-8.262,0.795-11.438,2.383
    c-3.177,1.589-6.355,3.654-9.532,6.195c-1.906,2.543-3.813,5.562-5.72,9.056c-1.906,3.496-2.542,7.149-1.906,10.962
    c-0.636,3.813,0,7.468,1.906,10.962c1.907,3.496,3.813,6.515,5.72,9.056c3.177,2.543,6.355,4.608,9.532,6.196
    C395.683,414.112,399.496,414.906,403.944,414.906L403.944,414.906z M402.991,373.918c3.813,0,6.832,1.271,9.056,3.813
    c2.224,2.543,3.653,5.402,4.289,8.579c-0.636,3.179-2.065,6.038-4.289,8.579c-2.224,2.542-5.243,3.813-9.056,3.813
    c-2.542,0-5.243-1.271-8.103-3.813c-2.859-2.541-3.972-5.4-3.336-8.579c-0.636-3.177,0.477-6.036,3.336-8.579
    C397.748,375.189,400.449,373.918,402.991,373.918L402.991,373.918z M19.798,365.339c2.541,0,4.448-0.635,5.719-1.906
    s2.225-2.859,2.859-4.766L62.693,90.813c1.271-7.626,3.496-14.616,6.673-20.972c3.178-6.354,7.944-11.756,14.298-16.204
    c4.449-5.084,10.168-8.896,17.158-11.438c6.991-2.542,13.98-3.813,20.971-3.813h247.836c6.989,0,13.98,1.271,20.971,3.813
    s12.709,6.354,17.158,11.438c6.354,4.448,11.121,9.85,14.298,16.204c3.177,6.355,5.401,13.346,6.673,20.972l33.362,254.508
    c0.636,1.906,1.747,3.496,3.336,4.767c1.589,1.271,3.654,1.906,6.196,1.906c1.906,0,3.653-0.953,5.242-2.859
    c1.589-1.907,2.065-4.131,1.43-6.673L444.933,88.906c-1.906-9.532-4.925-18.428-9.056-26.689
    c-4.13-8.262-9.691-15.252-16.681-20.971c-6.355-5.72-13.981-10.326-22.878-13.822c-8.896-3.495-17.793-5.242-26.689-5.242H121.792
    c-8.896,0-17.793,1.747-26.69,5.242c-8.896,3.496-16.522,8.103-22.877,13.822c-6.99,5.719-12.55,12.709-16.681,20.971
    c-4.13,8.262-7.149,16.84-9.056,25.736L13.126,356.76c-1.272,1.907-1.112,3.813,0.477,5.72c1.588,1.906,3.336,2.859,5.243,2.859
    H19.798h0.953H19.798z M323.874,266.205c10.168,0,19.224-1.907,27.167-5.72s15.41-8.897,22.4-15.251
    c5.72-6.99,10.485-14.775,14.299-23.354c3.813-8.578,5.401-17.952,4.766-28.119c0.636-9.532-0.953-18.746-4.766-27.644
    c-3.813-8.897-8.579-16.523-14.299-22.877c-6.99-6.354-14.615-11.597-22.877-15.729c-8.262-4.131-17.158-6.195-26.69-6.195
    c-1.271,0-3.177,0.158-5.719,0.477c-2.543,0.318-4.449,0.795-5.72,1.43c-5.083-4.448-9.691-8.421-13.821-11.915
    c-4.132-3.495-9.374-6.515-15.729-9.056c-4.447-2.542-9.69-4.448-15.728-5.72c-6.038-1.271-11.915-1.906-17.635-1.906
    c-8.896,0-17.316,1.271-25.26,3.813c-7.943,2.542-15.41,6.354-22.4,11.438c-6.354,4.448-12.233,10.009-17.635,16.682
    c-5.401,6.673-9.373,14.14-11.915,22.4c-3.177-1.271-6.354-2.064-9.532-2.383c-3.177-0.318-6.672-0.477-10.485-0.477
    c-6.99,0-14.139,1.588-21.447,4.766c-7.308,3.179-13.503,7.308-18.588,12.393c-5.719,5.719-10.009,12.233-12.869,19.541
    c-2.859,7.307-4.606,14.774-5.243,22.4c0.636,8.261,2.383,16.046,5.243,23.354c2.86,7.308,7.149,13.821,12.869,19.541
    c5.084,5.719,11.28,10.167,18.588,13.345c7.307,3.178,14.457,4.767,21.447,4.767h172.532H323.874z M153.249,162.305
    c3.178,0,6.672,0.318,10.485,0.953s6.672,1.906,8.579,3.813c1.906,0.635,3.336,0.953,4.29,0.953c0.953,0,2.383-0.318,4.289-0.953
    c0.636,0,1.43-0.477,2.383-1.43s1.43-2.064,1.43-3.336c2.542-7.626,5.719-14.617,9.532-20.971
    c3.813-6.354,8.579-11.758,14.298-16.205c5.084-4.448,11.28-7.944,18.588-10.485c7.308-2.541,14.457-3.813,21.447-3.813
    c6.354,0,11.757,0.635,16.204,1.906c4.448,1.271,9.214,2.859,14.299,4.766c3.813,2.541,7.944,5.401,12.392,8.579
    c4.448,3.178,7.943,6.673,10.485,10.485c1.271,1.271,2.542,2.225,3.813,2.859c1.271,0.635,2.86,0.635,4.767,0s4.13-1.111,6.673-1.43
    c2.542-0.318,4.766-0.477,6.672-0.477c7.626,0,14.458,1.588,20.494,4.767c6.037,3.178,11.915,7.307,17.635,12.392
    c3.813,5.084,7.309,10.962,10.485,17.635c3.177,6.672,4.448,13.821,3.813,21.447c0.636,7.625-0.636,14.774-3.813,21.447
    c-3.177,6.672-6.673,12.55-10.485,17.634c-5.72,5.084-11.598,9.215-17.635,12.393C338.332,248.412,331.5,250,323.874,250H153.249
    c-6.354,0-11.757-1.271-16.205-3.813s-8.896-5.72-13.345-9.532c-3.177-3.813-6.037-8.42-8.579-13.821
    c-2.542-5.401-3.495-11.281-2.86-17.635c-0.635-5.72,0.159-11.28,2.383-16.682c2.225-5.4,4.925-10.009,8.103-13.821
    c4.449-3.813,9.056-6.831,13.822-9.056S146.895,162.305,153.249,162.305L153.249,162.305z"></path>
  </svg>