<?xml version="1.0" encoding="UTF-8" standalone="no"?>
<svg
   xmlns:dc="http://purl.org/dc/elements/1.1/"
   xmlns:cc="http://creativecommons.org/ns#"
   xmlns:rdf="http://www.w3.org/1999/02/22-rdf-syntax-ns#"
   xmlns:svg="http://www.w3.org/2000/svg"
   xmlns="http://www.w3.org/2000/svg"
   viewBox="0 0 2250 2250"
   height="2250"
   width="2250"
   xml:space="preserve"
   version="1.1"
   id="svg2"><metadata
     id="metadata8"><rdf:RDF><cc:Work
         rdf:about=""><dc:format>image/svg+xml</dc:format><dc:type
           rdf:resource="http://purl.org/dc/dcmitype/StillImage" /></cc:Work></rdf:RDF></metadata><defs
     id="defs6"><clipPath
       id="clipPath20"
       clipPathUnits="userSpaceOnUse"><path
         id="path22"
         d="m 0,1800 1800,0 L 1800,0 0,0 0,1800 Z" /></clipPath><clipPath
       id="clipPath48"
       clipPathUnits="userSpaceOnUse"><path
         id="path50"
         d="m 1023.308,677.182 c -2.295,-1.228 -3.096,-4.025 -1.849,-6.231 l 0,0 c 0.048,-0.138 1.574,-2.926 2.634,-7.69 l 0,0 c 0,0 0.848,-3.725 0.727,-9.388 l 0,0 c 0,-0.063 -0.011,-0.414 -0.011,-0.517 l 0,0 c 0,-0.963 -0.047,-1.905 -0.115,-2.849 l 0,0 -49.295,0 c -1.45,-0.045 -2.622,-1.22 -2.622,-2.689 l 0,0 c 0,-1.459 1.172,-2.64 2.622,-2.688 l 0,0 0.012,0 0.04,0 0.05,0 48.469,0 c -0.781,-3.963 -1.97,-7.396 -2.954,-9.818 l 0,0 -32.695,0 c -1.034,-0.03 -1.864,-0.886 -1.864,-1.926 l 0,0 c 0,-1.043 0.83,-1.887 1.864,-1.904 l 0,0 0.026,0 0.033,-0.013 c 0,0 0.019,0.013 0.031,0.013 l 0,0 30.841,0 c -6.147,-13.202 -23.86,-26.365 -23.907,-26.405 l 0,0 C 962.06,578.989 963.343,568.571 964.542,570.291 l 0,0 c 13.814,16.639 27.908,23.66 38.549,31.715 l 0,0 c 5.78,4.369 11.4,8.943 15.25,12.622 l 0,0 c 25.983,27.657 20.453,53.286 15.642,59.332 l 0,0 c -0.526,0.667 -2.936,4.036 -7.06,4.036 l 0,0 c -1.087,0 -2.293,-0.234 -3.615,-0.814 m -71.722,-3.318 c -1.081,-1.388 -2.298,-3.818 -3.114,-7.066 l 0,0 c 0,0 -0.126,-0.458 -0.169,-0.678 l 0,0 c -0.124,-0.553 -0.235,-1.119 -0.333,-1.704 l 0,0 0.026,0 c -1.531,-9.767 -0.21,-23.611 9.303,-39.368 l 0,0 c 6.591,-10.155 13.491,-16.74 18.78,-21.674 l 0,0 c 0.47,-0.438 2.428,-2.164 3.433,-3.043 l 0,0 c 1.723,1.503 3.504,3.023 5.357,4.559 l 0,0 c -5.089,4.899 -9.826,10.355 -12.479,14.073 l 0,0 17.253,0 c 0.78,0.013 1.391,0.649 1.391,1.423 l 0,0 c 0,0.785 -0.611,1.403 -1.45,1.429 l 0,0 -19.18,0 c -0.521,0.829 -1.496,2.402 -1.496,2.402 l 0,0 c -2.837,4.659 -5.698,10.583 -7.778,18.799 l 0,0 c -1.508,6.932 -1.119,13.045 -0.424,17.306 l 0,0 34.314,0 c 1.034,0.038 1.863,0.88 1.863,1.925 l 0,0 c 0,1.048 -0.829,1.885 -1.863,1.91 l 0,0 -0.027,0 -0.032,0.011 -0.036,-0.011 -33.421,0 c 0.018,0.066 0.04,0.169 0.06,0.243 l 0,0 0.001,0 c 0.059,0.216 0.374,1.376 0.374,1.376 l 0,0 c 0.918,3.157 1.869,4.987 1.919,5.077 l 0,0 c 1.227,2.215 0.434,5.008 -1.798,6.231 l 0,0 c -1.303,0.583 -2.491,0.819 -3.56,0.819 l 0,0 c -4.04,0 -6.391,-3.361 -6.914,-4.039 m 69.281,-64.988 C 1007.049,592.24 992.95,585.232 982.314,577.171 l 0,0 c -5.778,-4.371 -11.399,-8.943 -15.251,-12.623 l 0,0 c -25.979,-27.66 -20.448,-53.284 -15.64,-59.33 l 0,0 c 0.667,-0.853 4.337,-6.01 10.673,-3.224 l 0,0 c 2.3,1.23 3.1,4.019 1.847,6.232 l 0,0 c -0.044,0.134 -1.568,2.926 -2.634,7.687 l 0,0 c 0,0 -0.843,3.725 -0.723,9.38 l 0,0 c 0,0.077 0.012,0.42 0.012,0.527 l 0,0 c -0.004,0.984 0.064,1.945 0.135,2.907 l 0,0 50.422,0 c 1.45,0.045 2.618,1.218 2.618,2.687 l 0,0 c 0,1.467 -1.168,2.64 -2.618,2.693 l 0,0 -0.014,0 -0.04,0 -0.05,0 -49.609,0 c 0.788,3.973 1.99,7.403 2.972,9.815 l 0,0 33.818,0 c 1.032,0.034 1.866,0.883 1.866,1.924 l 0,0 c 0,1.055 -0.834,1.89 -1.866,1.906 l 0,0 -0.026,0 -0.029,0.009 -0.039,-0.009 -31.954,0 c 6.179,13.173 23.827,26.308 23.876,26.339 l 0,0 c 30.946,24.262 32.01,34.966 31.048,34.967 l 0,0 c -0.073,0 -0.157,-0.061 -0.241,-0.182 m -20.575,-34.549 c 5.147,-4.937 9.832,-10.309 12.512,-14.054 l 0,0 -17.254,0 c -0.781,-0.017 -1.391,-0.647 -1.391,-1.426 l 0,0 c 0,-0.79 0.61,-1.404 1.447,-1.429 l 0,0 19.18,0 c 0.525,-0.827 1.497,-2.407 1.497,-2.407 l 0,0 c 2.841,-4.644 5.7,-10.57 7.783,-18.798 l 0,0 c 1.504,-6.925 1.117,-13.043 0.422,-17.301 l 0,0 -34.315,0 c -1.031,-0.032 -1.861,-0.881 -1.861,-1.93 l 0,0 c 0,-1.044 0.83,-1.884 1.861,-1.896 l 0,0 0.022,0 0.033,-0.018 0.04,0.018 33.419,0 c -0.018,-0.075 -0.438,-1.638 -0.438,-1.638 l 0,0 c -0.912,-3.152 -1.866,-4.976 -1.916,-5.071 l 0,0 c -1.227,-2.213 -0.432,-5.01 1.798,-6.23 l 0,0 c 6.226,-2.778 9.812,2.365 10.476,3.22 l 0,0 c 1.08,1.386 2.3,3.813 3.114,7.07 l 0,0 0.042,0 c 0.045,0.216 0.086,0.459 0.126,0.677 l 0,0 c 0.124,0.543 0.238,1.112 0.334,1.702 l 0,0 -0.03,0 c 1.537,9.775 0.215,23.613 -9.301,39.378 l 0,0 c -6.59,10.148 -13.487,16.728 -18.78,21.664 l 0,0 c -0.496,0.458 -2.521,2.19 -3.471,3.025 l 0,0 c -1.693,-1.496 -3.477,-3.013 -5.349,-4.556" /></clipPath><linearGradient
       id="linearGradient56"
       spreadMethod="pad"
       gradientTransform="matrix(87.814392,-174.2652,-174.2652,-87.814392,949.24963,675.82178)"
       gradientUnits="userSpaceOnUse"
       y2="0"
       x2="1"
       y1="0"
       x1="0"><stop
         id="stop58"
         offset="0"
         style="stop-opacity:1;stop-color:#f05e5c" /><stop
         id="stop60"
         offset="0.01227"
         style="stop-opacity:1;stop-color:#f05e5c" /><stop
         id="stop62"
         offset="0.148079"
         style="stop-opacity:1;stop-color:#e76374" /><stop
         id="stop64"
         offset="0.267662"
         style="stop-opacity:1;stop-color:#e36887" /><stop
         id="stop66"
         offset="0.49418"
         style="stop-opacity:1;stop-color:#985c96" /><stop
         id="stop68"
         offset="0.65623"
         style="stop-opacity:1;stop-color:#8c5b99" /><stop
         id="stop70"
         offset="0.81804"
         style="stop-opacity:1;stop-color:#67497e" /><stop
         id="stop72"
         offset="1"
         style="stop-opacity:1;stop-color:#523b6c" /></linearGradient><clipPath
       id="clipPath80"
       clipPathUnits="userSpaceOnUse"><path
         id="path82"
         d="m 0,1800 1800,0 L 1800,0 0,0 0,1800 Z" /></clipPath></defs><g
     transform="matrix(1.25,0,0,-1.25,0,2250)"
     id="g10"><text
       id="text12"
       style="font-variant:normal;font-weight:normal;font-stretch:normal;font-size:121.3769989px;font-family:'Myriad Pro';-inkscape-font-specification:MyriadPro-Regular;writing-mode:lr-tb;fill:#65457b;fill-opacity:1;fill-rule:nonzero;stroke:none"
       transform="matrix(1,0,0,-1,767.3418,532.7773)"><tspan
         id="tspan14"
         y="0"
         x="0 63.965679">BY</tspan></text>
<g
       id="g16"><g
         clip-path="url(#clipPath20)"
         id="g18"><g
           transform="translate(1057.0785,1052.7463)"
           id="g24"><path
             id="path26"
             style="fill:#65457b;fill-opacity:1;fill-rule:nonzero;stroke:none"
             d="m 0,0 c -3.546,92.217 -79.41,165.893 -172.496,165.893 -49.447,0 -94.033,-20.794 -125.507,-54.108 l 0,54.108 c -71.922,0 -130.226,-58.304 -130.226,-130.226 l 0,-367.085 130.226,0 0,123.178 0,82.961 0,91.991 c 0,46.371 37.59,83.961 83.96,83.961 46.371,0 83.961,-37.59 83.961,-83.961 l 0,-140.842 0,-34.11 0,-123.178 130.226,0 0,324.671 L 0.144,0 0,0 Z" /></g><g
           transform="translate(522.4241,1241.7693)"
           id="g28"><path
             id="path30"
             style="fill:#65457b;fill-opacity:1;fill-rule:nonzero;stroke:none"
             d="m 0,0 c -18.037,0 -33.369,6.313 -45.996,18.939 -12.626,12.627 -18.94,28.255 -18.94,46.898 0,18.63 6.314,34.272 18.94,46.898 12.627,12.627 27.959,18.94 45.996,18.94 18.63,0 34.412,-6.313 47.349,-18.94 12.922,-12.626 19.39,-28.268 19.39,-46.898 0,-18.643 -6.468,-34.271 -19.39,-46.898 C 34.412,6.313 18.63,0 0,0" /></g><g
           transform="translate(1347.931,821.0109)"
           id="g32"><path
             id="path34"
             style="fill:#65457b;fill-opacity:1;fill-rule:nonzero;stroke:none"
             d="m 0,0 c -68.113,0 -123.329,55.217 -123.329,123.329 0,68.113 55.216,123.329 123.329,123.329 49.462,0 92.114,-29.121 111.77,-71.15 l 131.978,0 C 219.72,289.475 118.597,375.027 -2.521,375.027 c -139.008,0 -251.698,-112.689 -251.698,-251.698 0,-139.009 112.69,-251.698 251.698,-251.698 121.118,0 222.241,85.553 246.269,199.519 l -131.978,0 C 92.114,29.122 49.462,0 0,0" /></g><g
           transform="translate(457.4886,721.3283)"
           id="g36"><path
             id="path38"
             style="fill:#65457b;fill-opacity:1;fill-rule:nonzero;stroke:none"
             d="m 0,0 131.402,0 0,461.659 c 0,19.69 -15.962,35.652 -35.652,35.652 l -60.098,0 C 15.962,497.311 0,481.349 0,461.659 L 0,0 Z" /></g><g
           transform="translate(457.4896,682.1613)"
           id="g40"><path
             id="path42"
             style="fill:#65457b;fill-opacity:1;fill-rule:nonzero;stroke:none"
             d="m 0,0 c 0,-36.081 -29.25,-65.331 -65.331,-65.331 -35.121,0 -63.759,27.716 -65.259,62.468 l 1.286,625.275 c 0,36.081 -29.25,65.331 -65.331,65.331 -36.081,0 -65.331,-29.25 -65.331,-65.331 l 0,-625.275 0.036,0 c 1.534,-106.172 88.063,-191.771 194.599,-191.771 107.493,0 194.634,87.141 194.634,194.634 L 0,0 Z" /></g></g></g><g
       id="g44"><g
         clip-path="url(#clipPath48)"
         id="g46"><g
           id="g52"><g
             id="g54"><path
               id="path74"
               style="fill:url(#linearGradient56);stroke:none"
               d="m 1023.308,677.182 c -2.295,-1.228 -3.096,-4.025 -1.849,-6.231 l 0,0 c 0.048,-0.138 1.574,-2.926 2.634,-7.69 l 0,0 c 0,0 0.848,-3.725 0.727,-9.388 l 0,0 c 0,-0.063 -0.011,-0.414 -0.011,-0.517 l 0,0 c 0,-0.963 -0.047,-1.905 -0.115,-2.849 l 0,0 -49.295,0 c -1.45,-0.045 -2.622,-1.22 -2.622,-2.689 l 0,0 c 0,-1.459 1.172,-2.64 2.622,-2.688 l 0,0 0.012,0 0.04,0 0.05,0 48.469,0 c -0.781,-3.963 -1.97,-7.396 -2.954,-9.818 l 0,0 -32.695,0 c -1.034,-0.03 -1.864,-0.886 -1.864,-1.926 l 0,0 c 0,-1.043 0.83,-1.887 1.864,-1.904 l 0,0 0.026,0 0.033,-0.013 c 0,0 0.019,0.013 0.031,0.013 l 0,0 30.841,0 c -6.147,-13.202 -23.86,-26.365 -23.907,-26.405 l 0,0 C 962.06,578.989 963.343,568.571 964.542,570.291 l 0,0 c 13.814,16.639 27.908,23.66 38.549,31.715 l 0,0 c 5.78,4.369 11.4,8.943 15.25,12.622 l 0,0 c 25.983,27.657 20.453,53.286 15.642,59.332 l 0,0 c -0.526,0.667 -2.936,4.036 -7.06,4.036 l 0,0 c -1.087,0 -2.293,-0.234 -3.615,-0.814 m -71.722,-3.318 c -1.081,-1.388 -2.298,-3.818 -3.114,-7.066 l 0,0 c 0,0 -0.126,-0.458 -0.169,-0.678 l 0,0 c -0.124,-0.553 -0.235,-1.119 -0.333,-1.704 l 0,0 0.026,0 c -1.531,-9.767 -0.21,-23.611 9.303,-39.368 l 0,0 c 6.591,-10.155 13.491,-16.74 18.78,-21.674 l 0,0 c 0.47,-0.438 2.428,-2.164 3.433,-3.043 l 0,0 c 1.723,1.503 3.504,3.023 5.357,4.559 l 0,0 c -5.089,4.899 -9.826,10.355 -12.479,14.073 l 0,0 17.253,0 c 0.78,0.013 1.391,0.649 1.391,1.423 l 0,0 c 0,0.785 -0.611,1.403 -1.45,1.429 l 0,0 -19.18,0 c -0.521,0.829 -1.496,2.402 -1.496,2.402 l 0,0 c -2.837,4.659 -5.698,10.583 -7.778,18.799 l 0,0 c -1.508,6.932 -1.119,13.045 -0.424,17.306 l 0,0 34.314,0 c 1.034,0.038 1.863,0.88 1.863,1.925 l 0,0 c 0,1.048 -0.829,1.885 -1.863,1.91 l 0,0 -0.027,0 -0.032,0.011 -0.036,-0.011 -33.421,0 c 0.018,0.066 0.04,0.169 0.06,0.243 l 0,0 0.001,0 c 0.059,0.216 0.374,1.376 0.374,1.376 l 0,0 c 0.918,3.157 1.869,4.987 1.919,5.077 l 0,0 c 1.227,2.215 0.434,5.008 -1.798,6.231 l 0,0 c -1.303,0.583 -2.491,0.819 -3.56,0.819 l 0,0 c -4.04,0 -6.391,-3.361 -6.914,-4.039 m 69.281,-64.988 C 1007.049,592.24 992.95,585.232 982.314,577.171 l 0,0 c -5.778,-4.371 -11.399,-8.943 -15.251,-12.623 l 0,0 c -25.979,-27.66 -20.448,-53.284 -15.64,-59.33 l 0,0 c 0.667,-0.853 4.337,-6.01 10.673,-3.224 l 0,0 c 2.3,1.23 3.1,4.019 1.847,6.232 l 0,0 c -0.044,0.134 -1.568,2.926 -2.634,7.687 l 0,0 c 0,0 -0.843,3.725 -0.723,9.38 l 0,0 c 0,0.077 0.012,0.42 0.012,0.527 l 0,0 c -0.004,0.984 0.064,1.945 0.135,2.907 l 0,0 50.422,0 c 1.45,0.045 2.618,1.218 2.618,2.687 l 0,0 c 0,1.467 -1.168,2.64 -2.618,2.693 l 0,0 -0.014,0 -0.04,0 -0.05,0 -49.609,0 c 0.788,3.973 1.99,7.403 2.972,9.815 l 0,0 33.818,0 c 1.032,0.034 1.866,0.883 1.866,1.924 l 0,0 c 0,1.055 -0.834,1.89 -1.866,1.906 l 0,0 -0.026,0 -0.029,0.009 -0.039,-0.009 -31.954,0 c 6.179,13.173 23.827,26.308 23.876,26.339 l 0,0 c 30.946,24.262 32.01,34.966 31.048,34.967 l 0,0 c -0.073,0 -0.157,-0.061 -0.241,-0.182 m -20.575,-34.549 c 5.147,-4.937 9.832,-10.309 12.512,-14.054 l 0,0 -17.254,0 c -0.781,-0.017 -1.391,-0.647 -1.391,-1.426 l 0,0 c 0,-0.79 0.61,-1.404 1.447,-1.429 l 0,0 19.18,0 c 0.525,-0.827 1.497,-2.407 1.497,-2.407 l 0,0 c 2.841,-4.644 5.7,-10.57 7.783,-18.798 l 0,0 c 1.504,-6.925 1.117,-13.043 0.422,-17.301 l 0,0 -34.315,0 c -1.031,-0.032 -1.861,-0.881 -1.861,-1.93 l 0,0 c 0,-1.044 0.83,-1.884 1.861,-1.896 l 0,0 0.022,0 0.033,-0.018 0.04,0.018 33.419,0 c -0.018,-0.075 -0.438,-1.638 -0.438,-1.638 l 0,0 c -0.912,-3.152 -1.866,-4.976 -1.916,-5.071 l 0,0 c -1.227,-2.213 -0.432,-5.01 1.798,-6.23 l 0,0 c 6.226,-2.778 9.812,2.365 10.476,3.22 l 0,0 c 1.08,1.386 2.3,3.813 3.114,7.07 l 0,0 0.042,0 c 0.045,0.216 0.086,0.459 0.126,0.677 l 0,0 c 0.124,0.543 0.238,1.112 0.334,1.702 l 0,0 -0.03,0 c 1.537,9.775 0.215,23.613 -9.301,39.378 l 0,0 c -6.59,10.148 -13.487,16.728 -18.78,21.664 l 0,0 c -0.496,0.458 -2.521,2.19 -3.471,3.025 l 0,0 c -1.693,-1.496 -3.477,-3.013 -5.349,-4.556" /></g></g></g></g><g
       id="g76"><g
         clip-path="url(#clipPath80)"
         id="g78"><g
           transform="translate(1137.7982,573.4885)"
           id="g84"><path
             id="path86"
             style="fill:#41484e;fill-opacity:1;fill-rule:nonzero;stroke:none"
             d="m 0,0 c 0,5.994 -4.853,10.846 -10.846,10.846 l -40.239,0 0,-33.393 c 0,-1.427 1.141,-2.71 2.71,-2.71 l 37.529,0 C -4.853,-25.257 0,-20.262 0,-14.27 L 0,0 Z m -51.085,23.118 40.239,0 C -4.853,23.118 0,27.97 0,33.963 l 0,12.558 c 0,5.993 -4.853,10.844 -10.846,10.844 l -37.529,0 c -1.569,0 -2.71,-1.141 -2.71,-2.712 l 0,-31.535 z m -13.415,-52.372 0,90.901 c 0,4.424 3.567,7.991 7.991,7.991 l 2.282,0 43.381,0 c 13.417,0 24.259,-10.846 24.259,-24.259 l 0,-10.845 C 13.413,27.684 7.991,18.552 0.286,16.98 7.991,14.983 13.413,6.278 13.413,-0.569 l 0,-12.56 c 0,-13.413 -10.842,-24.401 -24.259,-24.401 l -45.378,0 c -4.566,0 -8.276,3.711 -8.276,8.276" /></g><g
           transform="translate(1177.3236,605.882)"
           id="g88"><path
             id="path90"
             style="fill:#41484e;fill-opacity:1;fill-rule:nonzero;stroke:none"
             d="m 0,0 0,-69.924 -10.847,0 c -0.856,0 -1.57,0.714 -1.57,1.571 l 0,69.78 10.847,0 C -0.714,1.427 0,0.855 0,0 m 0,31.821 0,-11.701 -10.847,0 c -0.856,0 -1.57,0.714 -1.57,1.57 l 0,11.702 10.847,0 c 0.856,0 1.57,-0.714 1.57,-1.571" /></g><g
           transform="translate(1228.4086,546.2316)"
           id="g92"><path
             id="path94"
             style="fill:#41484e;fill-opacity:1;fill-rule:nonzero;stroke:none"
             d="m 0,0 0,-10.273 -14.414,0 c -11.416,0 -20.834,9.275 -20.834,20.834 l 0,85.05 10.846,0 c 0.856,0 1.569,-0.714 1.569,-1.572 l 0,-35.675 c 0.712,1.571 2.282,2.57 4.139,2.57 l 15.125,0 0,-10.274 c 0,-0.856 -0.712,-1.429 -1.569,-1.429 l -17.695,0 0,-39.241 c 0,-4.708 3.709,-8.42 8.419,-8.42 l 12.844,0 C -0.714,1.57 0,0.858 0,0" /></g><g
           transform="translate(1250.0951,556.2219)"
           id="g96"><path
             id="path98"
             style="fill:#41484e;fill-opacity:1;fill-rule:nonzero;stroke:none"
             d="m 0,0 c 0,-4.565 1.855,-8.42 7.849,-8.42 l 19.692,0 c 3.712,0.571 6.707,3.568 6.991,7.279 l 0,38.956 c 0,0.858 -0.712,1.571 -1.569,1.571 l -24.542,0 C 1.855,39.386 0,35.533 0,30.965 L 0,0 Z m 34.532,-14.555 c -1.424,-2.569 -5.279,-5.709 -9.845,-5.709 l -17.123,0 c -13.272,0 -19.978,9.419 -19.978,20.834 l 0,30.395 c 0,11.417 7.276,20.264 20.835,20.264 l 33.962,0 c 2.569,0 4.564,-2.14 4.564,-4.566 l 0,-80.91 c 0,-11.559 -9.418,-20.834 -20.833,-20.834 l -33.962,0 0,10.273 c 0,0.857 0.713,1.571 1.57,1.571 l 32.392,0 c 4.569,0 8.418,3.71 8.418,8.419 l 0,20.263 z" /></g><g
           transform="translate(1332.0052,595.6076)"
           id="g100"><path
             id="path102"
             style="fill:#41484e;fill-opacity:1;fill-rule:nonzero;stroke:none"
             d="m 0,0 c -4.714,0 -8.422,-2.712 -8.422,-8.421 l 0,-7.704 c 0,-0.859 0.572,-1.428 1.43,-1.57 l 33.248,0 c 0.856,0 1.567,0.711 1.567,1.57 l 0,7.704 C 27.823,-2.712 25.114,0 19.549,0 L 0,0 Z m -20.838,-38.815 0,30.252 c 0,13.272 9.277,20.264 20.838,20.264 l 19.119,0 c 11.56,0 20.837,-6.992 20.837,-20.264 l 0,-16.411 c 0,-2.424 -0.288,-4.423 -3.713,-4.423 l -39.098,0 c -2.284,0 -4.283,1 -5.567,2.713 l 0,-12.702 c 0,-4.708 3.708,-8.42 8.422,-8.42 l 35.389,0 c 0.854,0 1.568,-0.712 1.568,-1.57 l 0,-10.273 -36.957,0 c -11.561,0 -20.838,9.275 -20.838,20.834" /></g><g
           transform="translate(1444.306,586.4738)"
           id="g104"><path
             id="path106"
             style="fill:#41484e;fill-opacity:1;fill-rule:nonzero;stroke:none"
             d="m 0,0 0,-50.516 -10.848,0 c -0.855,0 -1.567,0.714 -1.567,1.572 l 0,49.657 c 0,4.568 -3.709,8.421 -8.422,8.421 l -25.826,0 c -0.858,0 -1.57,-0.713 -1.57,-1.571 l 0,-56.507 c 0,-0.858 -0.715,-1.572 -1.572,-1.572 l -10.843,0 0,62.077 c 0,5.134 4.136,9.274 9.276,9.274 l 30.535,0 C -9.277,20.835 0,11.561 0,0" /></g><g
           transform="translate(1471.8431,605.882)"
           id="g108"><path
             id="path110"
             style="fill:#41484e;fill-opacity:1;fill-rule:nonzero;stroke:none"
             d="m 0,0 0,-69.924 -10.847,0 c -0.855,0 -1.571,0.714 -1.571,1.571 l 0,69.78 10.851,0 C -0.715,1.427 0,0.855 0,0 m 0,31.821 0,-11.701 -10.847,0 c -0.855,0 -1.571,0.714 -1.571,1.57 l 0,11.702 10.851,0 C -0.715,33.392 0,32.678 0,31.821" /></g><g
           transform="translate(1499.3129,586.9025)"
           id="g112"><path
             id="path114"
             style="fill:#41484e;fill-opacity:1;fill-rule:nonzero;stroke:none"
             d="m 0,0 0,-30.681 c 0,-4.708 3.711,-8.42 8.419,-8.42 l 25.256,0 c 0.859,0 1.573,-0.712 1.573,-1.57 l 0,-10.273 -26.829,0 c -11.418,0 -20.835,9.275 -20.835,20.834 l 0,29.539 c 0,11.559 9.417,20.834 20.835,20.834 l 26.829,0 0,-10.274 c 0,-0.856 -0.714,-1.428 -1.573,-1.428 l -25.256,0 C 3.711,8.561 0,4.71 0,0" /></g><g
           transform="translate(1545.8304,578.9133)"
           id="g116"><path
             id="path118"
             style="fill:#41484e;fill-opacity:1;fill-rule:nonzero;stroke:none"
             d="m 0,0 0,9.559 c 0,11.559 7.991,18.837 19.547,18.837 l 39.103,0 0,-10.132 c 0,-0.855 -0.714,-1.57 -1.571,-1.57 l -37.532,0 c -4.708,0 -7.134,-2.284 -7.134,-6.993 l 0,-4.137 c 0,-0.713 0.573,-1.285 1.283,-1.57 L 57.793,-6.425 c 2.282,-0.427 3.853,-2.424 3.853,-4.708 l 0,-12.699 c 0,-12.415 -8.849,-19.123 -20.41,-19.123 l -40.38,0 0,10.132 c 0,0.856 0.712,1.569 1.57,1.569 l 38.81,0 c 4.713,0 8.851,2.713 8.851,7.422 l 0,6.707 c 0,0.713 -0.57,1.282 -1.284,1.428 L 3.993,-4.71 C 1.712,-4.284 0,-2.284 0,0" /></g></g></g></g></svg>